<svg width="20" height="22" viewBox="0 0 20 22" fill="none" xmlns="http://www.w3.org/2000/svg">
<path fill-rule="evenodd" clip-rule="evenodd" d="M14.7787 3.55208C14.9184 4.1822 14.9409 4.82674 14.8489 5.45745C17.1368 5.99136 18.9404 7.6714 19.5359 9.84229L19.6229 10.1595C20.2444 12.4252 20.0948 14.819 19.1954 16.9993L19.0898 17.2554C18.125 19.5943 15.9283 21.2766 13.3122 21.6801L12.4608 21.8114C10.831 22.0629 9.16897 22.0629 7.53914 21.8114L6.68774 21.6801C4.07167 21.2766 1.87498 19.5942 0.910223 17.2554L0.804596 16.9993C-0.094792 14.819 -0.244406 12.4252 0.377097 10.1595L0.464123 9.84229C1.05962 7.6714 2.86325 5.99137 5.15106 5.45745C5.05914 4.82674 5.08159 4.1822 5.22126 3.55208C5.61361 1.78202 7.10102 0.414906 8.98038 0.0969587L9.11395 0.0743619C9.70002 -0.0247872 10.3 -0.0247873 10.8861 0.0743618L11.0196 0.0969576C12.899 0.414905 14.3864 1.78202 14.7787 3.55208ZM9.43141 1.75863C9.8075 1.695 10.1925 1.695 10.5686 1.75862L10.7022 1.78122C11.8567 1.97654 12.7704 2.81636 13.0114 3.9037C13.1029 4.31645 13.1218 4.73814 13.0697 5.15221C11.033 4.88538 8.96705 4.88538 6.93032 5.15221C6.87825 4.73814 6.89713 4.31645 6.98862 3.90371C7.22964 2.81636 8.14335 1.97654 9.29785 1.78122L9.43141 1.75863Z" fill="white"/>
</svg>
