<svg width="22" height="24" viewBox="0 0 22 24" fill="none" xmlns="http://www.w3.org/2000/svg">
<path fill-rule="evenodd" clip-rule="evenodd" d="M16.2566 3.875C16.4103 4.5624 16.4349 5.26554 16.3338 5.95358C18.8504 6.53603 20.8344 8.3688 21.4895 10.737L21.5852 11.0831C22.2689 13.5548 22.1043 16.1662 21.1149 18.5447L20.9987 18.8241C19.9375 21.3755 17.5211 23.2108 14.6435 23.651L13.7069 23.7943C11.9141 24.0686 10.0859 24.0686 8.29306 23.7943L7.35652 23.651C4.47884 23.2108 2.06248 21.3755 1.00125 18.8241L0.885056 18.5447C-0.104271 16.1662 -0.268847 13.5548 0.414806 11.0831L0.510535 10.737C1.16559 8.3688 3.14957 6.53604 5.66616 5.95358C5.56505 5.26554 5.58975 4.5624 5.74339 3.875C6.17498 1.94403 7.81112 0.452624 9.87842 0.105773L10.0253 0.0811221C10.67 -0.0270406 11.33 -0.0270407 11.9747 0.0811219L12.1216 0.105772C14.1889 0.452624 15.825 1.94402 16.2566 3.875ZM10.3746 1.9185C10.7882 1.84909 11.2118 1.84909 11.6254 1.9185L11.7724 1.94315C13.0423 2.15622 14.0474 3.07239 14.3125 4.25859C14.4132 4.70885 14.4339 5.16888 14.3767 5.62059C12.1362 5.32951 9.86376 5.32951 7.62335 5.62059C7.56608 5.16888 7.58684 4.70885 7.68748 4.25859C7.9526 3.07239 8.95769 2.15622 10.2276 1.94315L10.3746 1.9185Z" fill="#AECEF3"/>
<path fill-rule="evenodd" clip-rule="evenodd" d="M16.2566 3.875C16.4103 4.5624 16.4349 5.26554 16.3338 5.95358C18.8504 6.53603 20.8344 8.3688 21.4895 10.737L21.5852 11.0831C22.2689 13.5548 22.1043 16.1662 21.1149 18.5447L20.9987 18.8241C19.9375 21.3755 17.5211 23.2108 14.6435 23.651L13.7069 23.7943C11.9141 24.0686 10.0859 24.0686 8.29306 23.7943L7.35652 23.651C4.47884 23.2108 2.06248 21.3755 1.00125 18.8241L0.885056 18.5447C-0.104271 16.1662 -0.268847 13.5548 0.414806 11.0831L0.510535 10.737C1.16559 8.3688 3.14957 6.53604 5.66616 5.95358C5.56505 5.26554 5.58975 4.5624 5.74339 3.875C6.17498 1.94403 7.81112 0.452624 9.87842 0.105773L10.0253 0.0811221C10.67 -0.0270406 11.33 -0.0270407 11.9747 0.0811219L12.1216 0.105772C14.1889 0.452624 15.825 1.94402 16.2566 3.875ZM10.3746 1.9185C10.7882 1.84909 11.2118 1.84909 11.6254 1.9185L11.7724 1.94315C13.0423 2.15622 14.0474 3.07239 14.3125 4.25859C14.4132 4.70885 14.4339 5.16888 14.3767 5.62059C12.1362 5.32951 9.86376 5.32951 7.62335 5.62059C7.56608 5.16888 7.58684 4.70885 7.68748 4.25859C7.9526 3.07239 8.95769 2.15622 10.2276 1.94315L10.3746 1.9185Z" fill="url(#paint0_linear_10_246)"/>
<defs>
<linearGradient id="paint0_linear_10_246" x1="-5.016" y1="-1.03726e-07" x2="29.0476" y2="1.44452" gradientUnits="userSpaceOnUse">
<stop stop-color="#DFEBFF"/>
<stop offset="1" stop-color="#88ADCA"/>
</linearGradient>
</defs>
</svg>
