<svg width="24" height="24" viewBox="0 0 24 24" fill="none" xmlns="http://www.w3.org/2000/svg">
<path fill-rule="evenodd" clip-rule="evenodd" d="M12 24C5.38293 24 0 18.6171 0 12C0 5.38293 5.38293 0 12 0C18.6171 0 24 5.38293 24 12C24 18.6171 18.6171 24 12 24ZM12 1.5C6.21002 1.5 1.5 6.21002 1.5 12C1.5 17.79 6.21002 22.5 12 22.5C17.79 22.5 22.5 17.79 22.5 12C22.5 6.21002 17.79 1.5 12 1.5ZM8.28809 16.4619C8.09601 16.4619 7.90393 16.389 7.758 16.242C7.46503 15.949 7.46503 15.4741 7.758 15.1811L10.9393 11.9997L7.75713 8.81799C7.46397 8.52502 7.46397 8.05005 7.75713 7.75708C8.05009 7.46393 8.52507 7.46393 8.81804 7.75708L12 10.939L15.1829 7.75598C15.4761 7.46301 15.951 7.46301 16.244 7.75598C16.537 8.04895 16.537 8.52393 16.244 8.81708L13.061 12L16.243 15.182C16.5361 15.475 16.5361 15.95 16.243 16.2429C16.0961 16.389 15.904 16.4619 15.712 16.4619C15.5201 16.4619 15.328 16.389 15.1821 16.242L12.0003 13.0607L8.81891 16.242C8.67096 16.389 8.47906 16.4619 8.28809 16.4619Z" fill="#CACCDE"/>
</svg>
