<svg width="28" height="46" viewBox="0 0 28 46" fill="none" xmlns="http://www.w3.org/2000/svg">
<path d="M27.4029 18.8672C27.4029 17.3708 26.7754 15.9666 25.6876 14.9519C25.915 14.0437 26.0328 13.083 26.0328 12.1289C26.0328 5.44067 20.5013 0 13.7015 0C6.90161 0 1.37015 5.44067 1.37015 12.1289C1.37015 13.0633 1.48387 14.0201 1.702 14.9426C0.622229 15.9521 0 17.359 0 18.8672C0 21.8402 2.45795 24.2578 5.48058 24.2578C7.11563 24.2578 8.58616 23.5498 9.59102 22.4285C10.5959 23.5498 12.0664 24.2578 13.7015 24.2578C15.3365 24.2578 16.807 23.5498 17.8119 22.4285C18.8168 23.5498 20.2873 24.2578 21.9223 24.2578C25.1092 24.2578 27.4029 21.6664 27.4029 18.8672Z" fill="#8896FE"/>
<path d="M27.4029 18.8672C27.4029 17.3708 26.7754 15.9666 25.6876 14.9519C25.915 14.0437 26.0328 13.083 26.0328 12.1289C26.0328 5.44067 20.5013 0 13.7015 0C6.90161 0 1.37015 5.44067 1.37015 12.1289C1.37015 13.0633 1.48387 14.0201 1.702 14.9426C0.622229 15.9521 0 17.359 0 18.8672C0 21.8402 2.45795 24.2578 5.48058 24.2578C7.11563 24.2578 8.58616 23.5498 9.59102 22.4285C10.5959 23.5498 12.0664 24.2578 13.7015 24.2578C15.3365 24.2578 16.807 23.5498 17.8119 22.4285C18.8168 23.5498 20.2873 24.2578 21.9223 24.2578C25.1092 24.2578 27.4029 21.6664 27.4029 18.8672Z" fill="url(#paint0_linear_1_134)"/>
<path d="M8.79004 35.4289L12.4185 45.1248C12.6191 45.6512 13.1303 45.9999 13.7016 45.9999C14.273 45.9999 14.7842 45.6512 14.9848 45.126L21.8486 26.9434C21.0692 26.9363 20.3097 26.8026 19.5758 26.5887L8.79004 35.4289Z" fill="#8896FE"/>
<path d="M8.79004 35.4289L12.4185 45.1248C12.6191 45.6512 13.1303 45.9999 13.7016 45.9999C14.273 45.9999 14.7842 45.6512 14.9848 45.126L21.8486 26.9434C21.0692 26.9363 20.3097 26.8026 19.5758 26.5887L8.79004 35.4289Z" fill="url(#paint1_linear_1_134)"/>
<path d="M13.7012 26.9529C12.2441 26.9529 10.8284 26.5712 9.59074 25.8671C8.37451 26.559 6.98463 26.9302 5.5542 26.9432L7.77046 32.7556L15.0672 26.7747C14.6145 26.8507 14.1668 26.9529 13.7012 26.9529Z" fill="#8896FE"/>
<path d="M13.7012 26.9529C12.2441 26.9529 10.8284 26.5712 9.59074 25.8671C8.37451 26.559 6.98463 26.9302 5.5542 26.9432L7.77046 32.7556L15.0672 26.7747C14.6145 26.8507 14.1668 26.9529 13.7012 26.9529Z" fill="url(#paint2_linear_1_134)"/>
<defs>
<linearGradient id="paint0_linear_1_134" x1="-6.24787" y1="-1.04841e-07" x2="36.1419" y2="2.21528" gradientUnits="userSpaceOnUse">
<stop stop-color="#DFEBFF"/>
<stop offset="1" stop-color="#88ADCA"/>
</linearGradient>
<linearGradient id="paint1_linear_1_134" x1="5.81268" y1="26.5887" x2="26.0487" y2="27.2184" gradientUnits="userSpaceOnUse">
<stop stop-color="#DFEBFF"/>
<stop offset="1" stop-color="#88ADCA"/>
</linearGradient>
<linearGradient id="paint2_linear_1_134" x1="3.38523" y1="25.8671" x2="18.0812" y2="26.806" gradientUnits="userSpaceOnUse">
<stop stop-color="#DFEBFF"/>
<stop offset="1" stop-color="#88ADCA"/>
</linearGradient>
</defs>
</svg>
