<svg width="24" height="24" viewBox="0 0 24 24" fill="none" xmlns="http://www.w3.org/2000/svg">
<path d="M24 12C24 18.6274 18.6274 24 12 24C5.37258 24 0 18.6274 0 12C0 5.37258 5.37258 0 12 0C18.6274 0 24 5.37258 24 12ZM3.6 12C3.6 16.6392 7.36081 20.4 12 20.4C16.6392 20.4 20.4 16.6392 20.4 12C20.4 7.36081 16.6392 3.6 12 3.6C7.36081 3.6 3.6 7.36081 3.6 12Z" fill="white" fill-opacity="0.5"/>
<path d="M23.6123 8.9743C24.2512 11.4266 24.0975 14.0182 23.173 16.3777C22.2485 18.7372 20.6008 20.7435 18.466 22.1089L16.5262 19.0763C18.0206 18.1204 19.174 16.716 19.8211 15.0644C20.4682 13.4127 20.5759 11.5986 20.1286 9.88201L23.6123 8.9743Z" fill="white"/>
</svg>
