<svg width="141" height="22" viewBox="0 0 141 22" fill="none" xmlns="http://www.w3.org/2000/svg">
<path d="M10.5685 15.5957C10.5685 16.671 10.3721 17.6079 9.97938 18.4065C9.5945 19.205 9.06431 19.8692 8.38881 20.3989C7.7133 20.9366 6.91605 21.3358 5.99705 21.5968C5.08591 21.8656 4.108 22 3.06333 22C2.66274 22 2.27786 21.9644 1.90869 21.8933C1.53952 21.83 1.21355 21.7391 0.930781 21.6205C0.648012 21.5019 0.424153 21.3596 0.259205 21.1935C0.0864016 21.0354 0 20.8615 0 20.6717C0 20.5294 0.0196367 20.3831 0.0589102 20.2329C0.0981836 20.0906 0.157094 19.9601 0.235641 19.8415C0.314188 19.7229 0.412371 19.6241 0.530191 19.545C0.640157 19.4659 0.765832 19.4264 0.907216 19.4264C0.993618 19.4264 1.06824 19.4699 1.13108 19.5569C1.20177 19.6438 1.27246 19.7506 1.34315 19.8771C1.41384 20.0115 1.49239 20.1538 1.57879 20.304C1.67305 20.4543 1.79087 20.5926 1.93225 20.7191C2.08149 20.8535 2.25822 20.9642 2.46244 21.0512C2.66667 21.1382 2.92194 21.1817 3.22828 21.1817C3.83309 21.1817 4.3515 21.071 4.7835 20.8496C5.22337 20.6282 5.58468 20.3159 5.86745 19.9127C6.15022 19.5094 6.35837 19.0271 6.4919 18.4658C6.63328 17.9123 6.70398 17.3035 6.70398 16.6394V1.89757C6.70398 1.72363 6.68434 1.58527 6.64507 1.48248C6.60579 1.37969 6.55081 1.30063 6.48012 1.24528C6.40943 1.18203 6.32302 1.1425 6.22091 1.12668C6.12666 1.10296 6.02062 1.09111 5.9028 1.09111C5.73 1.09111 5.51399 1.11878 5.25479 1.17412C5.00344 1.22947 4.73638 1.31249 4.45361 1.42318C4.17084 1.53387 3.88414 1.67224 3.59352 1.83827C3.31075 1.99641 3.05547 2.17826 2.82769 2.38383C2.60776 2.5894 2.4271 2.81869 2.28571 3.0717C2.14433 3.32471 2.07364 3.59748 2.07364 3.89003C2.07364 4.14304 2.10506 4.34465 2.16789 4.49488C2.23859 4.6451 2.31713 4.75975 2.40353 4.83881C2.48994 4.90997 2.57634 4.95741 2.66274 4.98113C2.757 4.99695 2.82376 5.00485 2.86303 5.00485C3.0594 5.00485 3.22042 4.97323 3.3461 4.90997C3.47177 4.83881 3.58567 4.76765 3.68778 4.6965C3.78989 4.61743 3.88414 4.54627 3.97054 4.48302C4.0648 4.41186 4.17084 4.37628 4.28866 4.37628C4.38292 4.37628 4.4811 4.4 4.58321 4.44744C4.69318 4.48697 4.79136 4.55418 4.87776 4.64906C4.97202 4.74394 5.05056 4.87044 5.1134 5.02857C5.17624 5.1788 5.20766 5.3646 5.20766 5.58598C5.20766 5.90225 5.14482 6.17502 5.01915 6.40431C4.90133 6.6336 4.74423 6.82731 4.54786 6.98545C4.35935 7.13567 4.13942 7.25031 3.88807 7.32938C3.64458 7.40054 3.40108 7.43612 3.15758 7.43612C2.78056 7.43612 2.43888 7.37287 2.13255 7.24636C1.83407 7.11195 1.57879 6.9301 1.36672 6.70081C1.15464 6.47152 0.993618 6.2027 0.883652 5.89434C0.773687 5.58598 0.718704 5.25786 0.718704 4.90997C0.718704 4.36442 0.816888 3.86631 1.01325 3.41563C1.20962 2.95705 1.47668 2.54591 1.81443 2.18221C2.16004 1.81851 2.56063 1.50225 3.0162 1.23342C3.47963 0.956694 3.9784 0.727403 4.51252 0.545553C5.04664 0.363702 5.60432 0.22929 6.18557 0.142318C6.76681 0.0474394 7.34806 0 7.92931 0C8.57339 0 9.07216 0.0632525 9.42563 0.189757C9.78694 0.308356 10.0501 0.454627 10.215 0.628571C10.3878 0.802516 10.4899 0.984367 10.5214 1.17412C10.5528 1.36388 10.5685 1.52201 10.5685 1.64852V15.5957Z" fill="#212542"/>
<path d="M24.1296 15.6668C24.1296 15.738 24.1335 15.8171 24.1414 15.904C24.1492 15.9831 24.1689 16.0622 24.2003 16.1412C24.2317 16.2124 24.2788 16.2717 24.3417 16.3191C24.4045 16.3666 24.4948 16.3903 24.6127 16.3903C24.7619 16.3903 24.8954 16.3389 25.0133 16.2361C25.1311 16.1254 25.241 16.0147 25.3432 15.904L25.6259 16.1531C25.5081 16.3191 25.3589 16.5049 25.1782 16.7105C25.0054 16.9082 24.7933 17.0979 24.542 17.2798C24.2906 17.4616 24.0039 17.6119 23.6819 17.7305C23.3598 17.857 22.9946 17.9202 22.5862 17.9202C22.2405 17.9202 21.9381 17.8728 21.6789 17.7779C21.4276 17.6909 21.2116 17.5723 21.0309 17.4221C20.8581 17.264 20.7285 17.0821 20.6421 16.8766C20.5557 16.6631 20.5125 16.4377 20.5125 16.2005V15.6668C20.1198 16.0938 19.7074 16.4694 19.2754 16.7935C19.0869 16.9359 18.8866 17.0742 18.6745 17.2086C18.4624 17.343 18.2425 17.4656 18.0147 17.5763C17.7869 17.6791 17.5513 17.7621 17.3078 17.8253C17.0643 17.8886 16.8208 17.9202 16.5773 17.9202C16.106 17.9202 15.7015 17.8372 15.3638 17.6712C15.0339 17.4972 14.7668 17.2719 14.5626 16.9951C14.3584 16.7184 14.2091 16.4061 14.1149 16.0582C14.0206 15.7103 13.9735 15.3624 13.9735 15.0146V7.67332C13.9735 7.60216 13.9696 7.52704 13.9617 7.44798C13.9539 7.36101 13.9342 7.28194 13.9028 7.21078C13.8714 7.13172 13.8243 7.06846 13.7614 7.02102C13.6986 6.97358 13.6082 6.94987 13.4904 6.94987C13.349 6.94987 13.2155 7.00521 13.0898 7.1159C12.972 7.21869 12.866 7.32543 12.7717 7.43612L12.4772 7.18706C12.595 7.02102 12.7403 6.83917 12.9131 6.64151C13.0938 6.43594 13.3098 6.24223 13.5611 6.06038C13.8125 5.87853 14.0992 5.7283 14.4212 5.6097C14.7511 5.4832 15.1163 5.41995 15.5169 5.41995C15.8625 5.41995 16.1649 5.46739 16.4242 5.56226C16.6834 5.64924 16.8994 5.77179 17.0722 5.92992C17.245 6.08014 17.3746 6.26199 17.461 6.47547C17.5474 6.68104 17.5906 6.90243 17.5906 7.13962V15.062C17.5906 15.1727 17.6063 15.2873 17.6377 15.4059C17.677 15.5166 17.728 15.6194 17.7909 15.7143C17.8616 15.8092 17.948 15.8882 18.0501 15.9515C18.1522 16.0068 18.2739 16.0345 18.4153 16.0345C18.6431 16.0345 18.8709 15.9752 19.0987 15.8566C19.3265 15.738 19.5346 15.5996 19.7231 15.4415C19.9116 15.2755 20.0727 15.1134 20.2062 14.9553C20.3476 14.7971 20.4497 14.6785 20.5125 14.5995V7.67332C20.5125 7.60216 20.5086 7.52704 20.5007 7.44798C20.4929 7.36101 20.4732 7.28194 20.4418 7.21078C20.4104 7.13172 20.3633 7.06846 20.3004 7.02102C20.2376 6.97358 20.1473 6.94987 20.0295 6.94987C19.8881 6.94987 19.7545 7.00521 19.6289 7.1159C19.511 7.21869 19.405 7.32543 19.3108 7.43612L19.0162 7.18706C19.134 7.02102 19.2793 6.83917 19.4521 6.64151C19.6328 6.43594 19.8488 6.24223 20.1001 6.06038C20.3515 5.87853 20.6382 5.7283 20.9602 5.6097C21.2901 5.4832 21.6554 5.41995 22.056 5.41995C22.4016 5.41995 22.704 5.46739 22.9632 5.56226C23.2224 5.64924 23.4384 5.77179 23.6112 5.92992C23.784 6.08014 23.9136 6.26199 24 6.47547C24.0864 6.68104 24.1296 6.90243 24.1296 7.13962V15.6668Z" fill="#212542"/>
<path d="M31.0221 6.36873C30.8414 6.36873 30.6686 6.39245 30.5037 6.43989C30.3466 6.48733 30.2052 6.5664 30.0795 6.67709C29.9539 6.77987 29.8557 6.91429 29.785 7.08032C29.7143 7.23845 29.6789 7.42821 29.6789 7.6496C29.6789 7.95795 29.7889 8.26631 30.0088 8.57466C30.2366 8.87511 30.5155 9.19137 30.8454 9.52345C31.1831 9.84762 31.5444 10.1876 31.9293 10.5434C32.322 10.8913 32.6834 11.2629 33.0133 11.6582C33.351 12.0456 33.6298 12.4607 33.8498 12.9035C34.0776 13.3463 34.1915 13.8207 34.1915 14.3267C34.1915 14.896 34.0933 15.402 33.8969 15.8447C33.7084 16.2875 33.4335 16.6631 33.0722 16.9714C32.7187 17.2798 32.2867 17.517 31.7761 17.683C31.2734 17.8412 30.7118 17.9202 30.0913 17.9202C29.5493 17.9202 29.0584 17.8451 28.6186 17.6949C28.1787 17.5367 27.786 17.347 27.4404 17.1256C27.1026 16.8963 26.812 16.6552 26.5685 16.4022C26.325 16.1491 26.1365 15.9199 26.0029 15.7143L26.4153 15.4178C26.5174 15.5364 26.647 15.6668 26.8041 15.8092C26.9612 15.9436 27.134 16.0701 27.3225 16.1887C27.5189 16.3073 27.727 16.4061 27.947 16.4852C28.1669 16.5563 28.3908 16.5919 28.6186 16.5919C29.1841 16.5919 29.6475 16.4575 30.0088 16.1887C30.3701 15.9119 30.5508 15.5048 30.5508 14.9671C30.5508 14.6667 30.4526 14.3583 30.2563 14.042C30.0599 13.7179 29.8125 13.3858 29.514 13.0458C29.2155 12.7058 28.8935 12.354 28.5479 11.9903C28.2023 11.6266 27.8802 11.251 27.5817 10.8636C27.2833 10.4762 27.0358 10.0769 26.8395 9.66577C26.6431 9.25463 26.5449 8.82767 26.5449 8.38491C26.5449 7.88679 26.6431 7.45193 26.8395 7.08032C27.0437 6.70872 27.3108 6.40036 27.6406 6.15526C27.9784 5.91015 28.3594 5.7283 28.7835 5.6097C29.2155 5.4832 29.6593 5.41995 30.1149 5.41995C30.6411 5.41995 31.1203 5.46739 31.5523 5.56226C31.9843 5.65714 32.3535 5.80341 32.6598 6.00108C32.974 6.19084 33.2136 6.43199 33.3785 6.72453C33.5513 7.01707 33.6377 7.35705 33.6377 7.74447C33.6377 8.04492 33.5395 8.30584 33.3432 8.52722C33.1468 8.74861 32.8719 8.8593 32.5184 8.8593C32.1807 8.8593 31.9215 8.78814 31.7408 8.64582C31.568 8.4956 31.4816 8.29398 31.4816 8.04097C31.4816 7.87493 31.5209 7.74447 31.5994 7.6496C31.6858 7.55472 31.7801 7.4796 31.8822 7.42426C31.9843 7.36101 32.0746 7.30961 32.1532 7.27008C32.2396 7.22264 32.2828 7.16334 32.2828 7.09218C32.2828 6.8708 32.1649 6.69686 31.9293 6.57035C31.6937 6.43594 31.3913 6.36873 31.0221 6.36873Z" fill="#212542"/>
<path d="M39.9647 6.43989V15.2043C39.9647 15.6234 40.0432 15.9159 40.2003 16.0819C40.3574 16.2401 40.5734 16.3191 40.8483 16.3191C41.0604 16.3191 41.2489 16.2598 41.4138 16.1412C41.5788 16.0226 41.7202 15.8882 41.838 15.738C41.9794 15.572 42.1011 15.3783 42.2032 15.1569L42.5685 15.3229C42.4507 15.5759 42.3093 15.8526 42.1443 16.1531C41.9872 16.4535 41.7752 16.7342 41.5081 16.9951C41.241 17.2482 40.9033 17.4616 40.4948 17.6356C40.0943 17.8095 39.5876 17.8965 38.975 17.8965C38.6294 17.8965 38.2955 17.8451 37.9735 17.7423C37.6593 17.6395 37.3765 17.4774 37.1252 17.2561C36.8817 17.0347 36.6853 16.758 36.5361 16.4259C36.3868 16.0938 36.3122 15.6945 36.3122 15.228V6.43989H34.9926V5.58598C35.2126 5.58598 35.5189 5.53064 35.9116 5.41995C36.3044 5.30135 36.705 5.10764 37.1134 4.83881C37.5297 4.56999 37.9146 4.21024 38.268 3.75957C38.6215 3.30889 38.8729 2.75148 39.0221 2.08733H39.9647V5.58598H41.8851C42.5135 5.58598 42.8277 5.47925 42.8277 5.26577C42.8277 5.1867 42.7884 5.13531 42.7099 5.11159C42.6313 5.07996 42.541 5.04438 42.4389 5.00485C42.3446 4.95741 42.2582 4.89416 42.1797 4.81509C42.1011 4.73603 42.0619 4.60557 42.0619 4.42372C42.0619 4.20234 42.1286 4.02839 42.2621 3.90189C42.4035 3.77538 42.5842 3.71213 42.8041 3.71213C42.9455 3.71213 43.0673 3.74376 43.1694 3.80701C43.2793 3.86235 43.3697 3.94142 43.4404 4.0442C43.511 4.13908 43.5621 4.24978 43.5935 4.37628C43.6328 4.50279 43.6524 4.62929 43.6524 4.7558C43.6524 5.26972 43.5032 5.68086 43.2047 5.98922C42.9141 6.28967 42.4428 6.43989 41.7909 6.43989H39.9647Z" fill="#212542"/>
<path d="M49.1931 16.7319C49.1931 16.8356 49.1735 16.9632 49.1343 17.1147C49.103 17.2583 49.0208 17.3978 48.8876 17.5334C48.7623 17.661 48.5782 17.7687 48.3354 17.8564C48.0926 17.9521 47.7636 18 47.3485 18C46.9333 18 46.6083 17.9482 46.3733 17.8445C46.1383 17.7488 45.9621 17.6331 45.8446 17.4975C45.7271 17.362 45.6527 17.2224 45.6214 17.0788C45.5979 16.9353 45.5861 16.8196 45.5861 16.7319V7.49613C45.5861 7.26484 45.5313 7.06545 45.4216 6.89796C45.3198 6.7225 45.1436 6.63476 44.8929 6.63476C44.7598 6.63476 44.6462 6.65869 44.5522 6.70654C44.4582 6.7544 44.3564 6.82219 44.2467 6.90992L44 6.61084C44.1802 6.4593 44.3799 6.31175 44.5992 6.16819C44.8263 6.01665 45.0692 5.88506 45.3276 5.7734C45.5861 5.66174 45.8642 5.57002 46.1618 5.49824C46.4595 5.42646 46.7728 5.39057 47.1017 5.39057C47.6109 5.39057 48.0064 5.46235 48.2884 5.60591C48.5704 5.7415 48.7779 5.91297 48.9111 6.12034C49.0443 6.31973 49.1226 6.53507 49.1461 6.76636C49.1774 6.99765 49.1931 7.20103 49.1931 7.3765V16.7319ZM45.2219 2.66291C45.2219 2.4396 45.2689 2.22824 45.3629 2.02885C45.4647 1.82149 45.6018 1.64204 45.7741 1.4905C45.9543 1.33896 46.1579 1.21933 46.3851 1.1316C46.62 1.04387 46.8746 1 47.1487 1C47.4151 1 47.6618 1.04387 47.8889 1.1316C48.1239 1.21933 48.3276 1.33896 48.4999 1.4905C48.6722 1.64204 48.8054 1.82149 48.8993 2.02885C49.0012 2.22824 49.0521 2.4396 49.0521 2.66291C49.0521 2.89421 49.0012 3.10955 48.8993 3.30894C48.8054 3.50833 48.6722 3.68379 48.4999 3.83533C48.3276 3.97889 48.1239 4.09453 47.8889 4.18227C47.6618 4.27 47.4151 4.31386 47.1487 4.31386C46.8746 4.31386 46.62 4.27 46.3851 4.18227C46.1579 4.09453 45.9543 3.97889 45.7741 3.83533C45.6018 3.68379 45.4647 3.50833 45.3629 3.30894C45.2689 3.10955 45.2219 2.89421 45.2219 2.66291Z" fill="#8896FE"/>
<path d="M49.1931 16.7319C49.1931 16.8356 49.1735 16.9632 49.1343 17.1147C49.103 17.2583 49.0208 17.3978 48.8876 17.5334C48.7623 17.661 48.5782 17.7687 48.3354 17.8564C48.0926 17.9521 47.7636 18 47.3485 18C46.9333 18 46.6083 17.9482 46.3733 17.8445C46.1383 17.7488 45.9621 17.6331 45.8446 17.4975C45.7271 17.362 45.6527 17.2224 45.6214 17.0788C45.5979 16.9353 45.5861 16.8196 45.5861 16.7319V7.49613C45.5861 7.26484 45.5313 7.06545 45.4216 6.89796C45.3198 6.7225 45.1436 6.63476 44.8929 6.63476C44.7598 6.63476 44.6462 6.65869 44.5522 6.70654C44.4582 6.7544 44.3564 6.82219 44.2467 6.90992L44 6.61084C44.1802 6.4593 44.3799 6.31175 44.5992 6.16819C44.8263 6.01665 45.0692 5.88506 45.3276 5.7734C45.5861 5.66174 45.8642 5.57002 46.1618 5.49824C46.4595 5.42646 46.7728 5.39057 47.1017 5.39057C47.6109 5.39057 48.0064 5.46235 48.2884 5.60591C48.5704 5.7415 48.7779 5.91297 48.9111 6.12034C49.0443 6.31973 49.1226 6.53507 49.1461 6.76636C49.1774 6.99765 49.1931 7.20103 49.1931 7.3765V16.7319ZM45.2219 2.66291C45.2219 2.4396 45.2689 2.22824 45.3629 2.02885C45.4647 1.82149 45.6018 1.64204 45.7741 1.4905C45.9543 1.33896 46.1579 1.21933 46.3851 1.1316C46.62 1.04387 46.8746 1 47.1487 1C47.4151 1 47.6618 1.04387 47.8889 1.1316C48.1239 1.21933 48.3276 1.33896 48.4999 1.4905C48.6722 1.64204 48.8054 1.82149 48.8993 2.02885C49.0012 2.22824 49.0521 2.4396 49.0521 2.66291C49.0521 2.89421 49.0012 3.10955 48.8993 3.30894C48.8054 3.50833 48.6722 3.68379 48.4999 3.83533C48.3276 3.97889 48.1239 4.09453 47.8889 4.18227C47.6618 4.27 47.4151 4.31386 47.1487 4.31386C46.8746 4.31386 46.62 4.27 46.3851 4.18227C46.1579 4.09453 45.9543 3.97889 45.7741 3.83533C45.6018 3.68379 45.4647 3.50833 45.3629 3.30894C45.2689 3.10955 45.2219 2.89421 45.2219 2.66291Z" fill="url(#paint0_linear_1_139)"/>
<path d="M59.6262 9.52991C59.3834 9.52991 59.1797 9.49402 59.0153 9.42224C58.8508 9.34248 58.7176 9.2388 58.6158 9.11119C58.514 8.98358 58.4396 8.84401 58.3926 8.69247C58.3456 8.53296 58.3221 8.36946 58.3221 8.20197C58.3221 7.98663 58.3338 7.77926 58.3573 7.57987C58.3886 7.38048 58.3926 7.20103 58.3691 7.04152C58.3534 6.88201 58.2947 6.7544 58.1928 6.65869C58.091 6.56298 57.9109 6.51513 57.6524 6.51513C57.3782 6.51513 57.0884 6.59489 56.7829 6.7544C56.4775 6.91391 56.1994 7.16514 55.9488 7.50809C55.6981 7.85104 55.4906 8.29369 55.3261 8.83603C55.1616 9.3704 55.0793 10.0164 55.0793 10.7741C55.0793 11.6115 55.1537 12.3772 55.3026 13.0711C55.4592 13.757 55.6903 14.3432 55.9958 14.8297C56.3012 15.3162 56.6811 15.6951 57.1354 15.9662C57.5897 16.2294 58.1223 16.361 58.7333 16.361C59.0074 16.361 59.2659 16.3291 59.5087 16.2653C59.7594 16.2015 59.9943 16.1138 60.2137 16.0021C60.433 15.8905 60.6405 15.7628 60.8364 15.6193C61.04 15.4677 61.2358 15.3082 61.4238 15.1407L61.7175 15.4279C61.5374 15.6751 61.3063 15.9463 61.0243 16.2414C60.7424 16.5365 60.4016 16.8156 60.0022 17.0788C59.6027 17.334 59.1367 17.5494 58.604 17.7248C58.0714 17.8923 57.4644 17.9761 56.7829 17.9761C56.1015 17.9761 55.4357 17.8445 54.7856 17.5813C54.1433 17.3101 53.5715 16.9193 53.0703 16.4089C52.569 15.8984 52.1656 15.2803 51.8601 14.5545C51.5625 13.8208 51.4136 12.9873 51.4136 12.0542C51.4136 11.3284 51.5037 10.6624 51.6839 10.0563C51.864 9.44218 52.1068 8.88787 52.4123 8.39339C52.7256 7.8989 53.0859 7.46423 53.4932 7.08937C53.9083 6.71452 54.3431 6.40347 54.7974 6.15623C55.2517 5.90101 55.7138 5.70959 56.1837 5.58198C56.6615 5.45437 57.1198 5.39057 57.5584 5.39057C58.138 5.39057 58.6432 5.45836 59.074 5.59395C59.5048 5.72953 59.8612 5.90898 60.1432 6.1323C60.433 6.35562 60.6484 6.61483 60.7894 6.90992C60.9304 7.19704 61.0008 7.49613 61.0008 7.80718C61.0008 8.03847 60.9695 8.26179 60.9069 8.47713C60.852 8.68449 60.7659 8.86793 60.6484 9.02745C60.5387 9.17898 60.3977 9.3026 60.2254 9.39831C60.0531 9.48604 59.8534 9.52991 59.6262 9.52991Z" fill="#8896FE"/>
<path d="M59.6262 9.52991C59.3834 9.52991 59.1797 9.49402 59.0153 9.42224C58.8508 9.34248 58.7176 9.2388 58.6158 9.11119C58.514 8.98358 58.4396 8.84401 58.3926 8.69247C58.3456 8.53296 58.3221 8.36946 58.3221 8.20197C58.3221 7.98663 58.3338 7.77926 58.3573 7.57987C58.3886 7.38048 58.3926 7.20103 58.3691 7.04152C58.3534 6.88201 58.2947 6.7544 58.1928 6.65869C58.091 6.56298 57.9109 6.51513 57.6524 6.51513C57.3782 6.51513 57.0884 6.59489 56.7829 6.7544C56.4775 6.91391 56.1994 7.16514 55.9488 7.50809C55.6981 7.85104 55.4906 8.29369 55.3261 8.83603C55.1616 9.3704 55.0793 10.0164 55.0793 10.7741C55.0793 11.6115 55.1537 12.3772 55.3026 13.0711C55.4592 13.757 55.6903 14.3432 55.9958 14.8297C56.3012 15.3162 56.6811 15.6951 57.1354 15.9662C57.5897 16.2294 58.1223 16.361 58.7333 16.361C59.0074 16.361 59.2659 16.3291 59.5087 16.2653C59.7594 16.2015 59.9943 16.1138 60.2137 16.0021C60.433 15.8905 60.6405 15.7628 60.8364 15.6193C61.04 15.4677 61.2358 15.3082 61.4238 15.1407L61.7175 15.4279C61.5374 15.6751 61.3063 15.9463 61.0243 16.2414C60.7424 16.5365 60.4016 16.8156 60.0022 17.0788C59.6027 17.334 59.1367 17.5494 58.604 17.7248C58.0714 17.8923 57.4644 17.9761 56.7829 17.9761C56.1015 17.9761 55.4357 17.8445 54.7856 17.5813C54.1433 17.3101 53.5715 16.9193 53.0703 16.4089C52.569 15.8984 52.1656 15.2803 51.8601 14.5545C51.5625 13.8208 51.4136 12.9873 51.4136 12.0542C51.4136 11.3284 51.5037 10.6624 51.6839 10.0563C51.864 9.44218 52.1068 8.88787 52.4123 8.39339C52.7256 7.8989 53.0859 7.46423 53.4932 7.08937C53.9083 6.71452 54.3431 6.40347 54.7974 6.15623C55.2517 5.90101 55.7138 5.70959 56.1837 5.58198C56.6615 5.45437 57.1198 5.39057 57.5584 5.39057C58.138 5.39057 58.6432 5.45836 59.074 5.59395C59.5048 5.72953 59.8612 5.90898 60.1432 6.1323C60.433 6.35562 60.6484 6.61483 60.7894 6.90992C60.9304 7.19704 61.0008 7.49613 61.0008 7.80718C61.0008 8.03847 60.9695 8.26179 60.9069 8.47713C60.852 8.68449 60.7659 8.86793 60.6484 9.02745C60.5387 9.17898 60.3977 9.3026 60.2254 9.39831C60.0531 9.48604 59.8534 9.52991 59.6262 9.52991Z" fill="url(#paint1_linear_1_139)"/>
<path d="M66.3349 12.3174C66.3349 12.5726 66.3702 12.8517 66.4406 13.1548C66.519 13.4499 66.6286 13.749 66.7696 14.0521C66.9106 14.3551 67.0829 14.6463 67.2866 14.9254C67.4981 15.1966 67.737 15.4398 68.0033 15.6552C68.2774 15.8705 68.579 16.042 68.9079 16.1696C69.2369 16.2972 69.5972 16.361 69.9889 16.361C70.263 16.361 70.5176 16.3291 70.7525 16.2653C70.9875 16.2015 71.2068 16.1138 71.4105 16.0021C71.6141 15.8905 71.81 15.7628 71.9979 15.6193C72.1859 15.4677 72.3739 15.3082 72.5619 15.1407L72.8556 15.4279C72.6755 15.6751 72.4444 15.9463 72.1624 16.2414C71.8805 16.5365 71.5397 16.8156 71.1403 17.0788C70.7408 17.334 70.2747 17.5494 69.7421 17.7248C69.2095 17.8923 68.6025 17.9761 67.921 17.9761C67.2396 17.9761 66.5738 17.8525 65.9237 17.6052C65.2814 17.35 64.7096 16.9711 64.2083 16.4687C63.707 15.9662 63.3037 15.3401 62.9982 14.5904C62.7005 13.8407 62.5517 12.9634 62.5517 11.9585C62.5517 11.2327 62.6418 10.5667 62.8219 9.96059C63.0021 9.35445 63.2449 8.80812 63.5504 8.3216C63.8637 7.83509 64.224 7.4084 64.6313 7.04152C65.0464 6.67464 65.4811 6.37157 65.9354 6.1323C66.3897 5.88506 66.8519 5.70162 67.3218 5.58198C67.7996 5.45437 68.2578 5.39057 68.6965 5.39057C69.2761 5.39057 69.7813 5.45437 70.2121 5.58198C70.6429 5.70959 70.9993 5.88107 71.2812 6.09641C71.5711 6.31175 71.7865 6.56298 71.9274 6.85011C72.0684 7.12925 72.1389 7.42435 72.1389 7.7354C72.1389 8.11025 72.0332 8.44921 71.8217 8.75229C71.6102 9.04738 71.3282 9.30659 70.9758 9.52991L66.3349 12.3174ZM68.6965 9.88881C68.7983 9.82501 68.8805 9.76519 68.9432 9.70936C69.0137 9.64556 69.0685 9.57377 69.1077 9.49402C69.1468 9.40629 69.1743 9.3026 69.1899 9.18297C69.2134 9.05536 69.2252 8.89984 69.2252 8.7164C69.2252 8.51701 69.2017 8.29768 69.1547 8.05841C69.1155 7.81117 69.045 7.57987 68.9432 7.36453C68.8414 7.14919 68.7121 6.96974 68.5555 6.82618C68.3988 6.68262 68.2108 6.61084 67.9915 6.61084C67.7095 6.61084 67.4667 6.69857 67.2631 6.87403C67.0673 7.04152 66.9028 7.26085 66.7696 7.53202C66.6443 7.80319 66.5425 8.11424 66.4641 8.46517C66.3937 8.80812 66.3388 9.15506 66.2997 9.50598C66.2605 9.85691 66.237 10.1959 66.2292 10.5229C66.2213 10.8419 66.2174 11.1131 66.2174 11.3364L68.6965 9.88881Z" fill="#8896FE"/>
<path d="M66.3349 12.3174C66.3349 12.5726 66.3702 12.8517 66.4406 13.1548C66.519 13.4499 66.6286 13.749 66.7696 14.0521C66.9106 14.3551 67.0829 14.6463 67.2866 14.9254C67.4981 15.1966 67.737 15.4398 68.0033 15.6552C68.2774 15.8705 68.579 16.042 68.9079 16.1696C69.2369 16.2972 69.5972 16.361 69.9889 16.361C70.263 16.361 70.5176 16.3291 70.7525 16.2653C70.9875 16.2015 71.2068 16.1138 71.4105 16.0021C71.6141 15.8905 71.81 15.7628 71.9979 15.6193C72.1859 15.4677 72.3739 15.3082 72.5619 15.1407L72.8556 15.4279C72.6755 15.6751 72.4444 15.9463 72.1624 16.2414C71.8805 16.5365 71.5397 16.8156 71.1403 17.0788C70.7408 17.334 70.2747 17.5494 69.7421 17.7248C69.2095 17.8923 68.6025 17.9761 67.921 17.9761C67.2396 17.9761 66.5738 17.8525 65.9237 17.6052C65.2814 17.35 64.7096 16.9711 64.2083 16.4687C63.707 15.9662 63.3037 15.3401 62.9982 14.5904C62.7005 13.8407 62.5517 12.9634 62.5517 11.9585C62.5517 11.2327 62.6418 10.5667 62.8219 9.96059C63.0021 9.35445 63.2449 8.80812 63.5504 8.3216C63.8637 7.83509 64.224 7.4084 64.6313 7.04152C65.0464 6.67464 65.4811 6.37157 65.9354 6.1323C66.3897 5.88506 66.8519 5.70162 67.3218 5.58198C67.7996 5.45437 68.2578 5.39057 68.6965 5.39057C69.2761 5.39057 69.7813 5.45437 70.2121 5.58198C70.6429 5.70959 70.9993 5.88107 71.2812 6.09641C71.5711 6.31175 71.7865 6.56298 71.9274 6.85011C72.0684 7.12925 72.1389 7.42435 72.1389 7.7354C72.1389 8.11025 72.0332 8.44921 71.8217 8.75229C71.6102 9.04738 71.3282 9.30659 70.9758 9.52991L66.3349 12.3174ZM68.6965 9.88881C68.7983 9.82501 68.8805 9.76519 68.9432 9.70936C69.0137 9.64556 69.0685 9.57377 69.1077 9.49402C69.1468 9.40629 69.1743 9.3026 69.1899 9.18297C69.2134 9.05536 69.2252 8.89984 69.2252 8.7164C69.2252 8.51701 69.2017 8.29768 69.1547 8.05841C69.1155 7.81117 69.045 7.57987 68.9432 7.36453C68.8414 7.14919 68.7121 6.96974 68.5555 6.82618C68.3988 6.68262 68.2108 6.61084 67.9915 6.61084C67.7095 6.61084 67.4667 6.69857 67.2631 6.87403C67.0673 7.04152 66.9028 7.26085 66.7696 7.53202C66.6443 7.80319 66.5425 8.11424 66.4641 8.46517C66.3937 8.80812 66.3388 9.15506 66.2997 9.50598C66.2605 9.85691 66.237 10.1959 66.2292 10.5229C66.2213 10.8419 66.2174 11.1131 66.2174 11.3364L68.6965 9.88881Z" fill="url(#paint2_linear_1_139)"/>
<path d="M87.3304 9.52991C87.0876 9.52991 86.884 9.49402 86.7195 9.42224C86.555 9.34248 86.4218 9.2388 86.32 9.11119C86.2182 8.98358 86.1438 8.84401 86.0968 8.69247C86.0498 8.53296 86.0263 8.36946 86.0263 8.20197C86.0263 7.98663 86.038 7.77926 86.0615 7.57987C86.0929 7.38048 86.0968 7.20103 86.0733 7.04152C86.0576 6.88201 85.9989 6.7544 85.897 6.65869C85.7952 6.56298 85.6151 6.51513 85.3566 6.51513C85.0824 6.51513 84.7926 6.59489 84.4872 6.7544C84.1817 6.91391 83.9036 7.16514 83.653 7.50809C83.4023 7.85104 83.1948 8.29369 83.0303 8.83603C82.8658 9.3704 82.7836 10.0164 82.7836 10.7741C82.7836 11.6115 82.858 12.3772 83.0068 13.0711C83.1634 13.757 83.3945 14.3432 83.7 14.8297C84.0054 15.3162 84.3853 15.6951 84.8396 15.9662C85.2939 16.2294 85.8265 16.361 86.4375 16.361C86.7116 16.361 86.9701 16.3291 87.2129 16.2653C87.4636 16.2015 87.6986 16.1138 87.9179 16.0021C88.1372 15.8905 88.3448 15.7628 88.5406 15.6193C88.7442 15.4677 88.94 15.3082 89.128 15.1407L89.4218 15.4279C89.2416 15.6751 89.0105 15.9463 88.7286 16.2414C88.4466 16.5365 88.1059 16.8156 87.7064 17.0788C87.3069 17.334 86.8409 17.5494 86.3083 17.7248C85.7756 17.8923 85.1686 17.9761 84.4872 17.9761C83.8057 17.9761 83.1399 17.8445 82.4898 17.5813C81.8475 17.3101 81.2758 16.9193 80.7745 16.4089C80.2732 15.8984 79.8698 15.2803 79.5643 14.5545C79.2667 13.8208 79.1179 12.9873 79.1179 12.0542C79.1179 11.3284 79.2079 10.6624 79.3881 10.0563C79.5682 9.44218 79.811 8.88787 80.1165 8.39339C80.4298 7.8989 80.7901 7.46423 81.1974 7.08937C81.6126 6.71452 82.0473 6.40347 82.5016 6.15623C82.9559 5.90101 83.418 5.70959 83.888 5.58198C84.3658 5.45437 84.824 5.39057 85.2626 5.39057C85.8422 5.39057 86.3474 5.45836 86.7782 5.59395C87.209 5.72953 87.5654 5.90898 87.8474 6.1323C88.1372 6.35562 88.3526 6.61483 88.4936 6.90992C88.6346 7.19704 88.7051 7.49613 88.7051 7.80718C88.7051 8.03847 88.6737 8.26179 88.6111 8.47713C88.5562 8.68449 88.4701 8.86793 88.3526 9.02745C88.2429 9.17898 88.1019 9.3026 87.9296 9.39831C87.7573 9.48604 87.5576 9.52991 87.3304 9.52991Z" fill="#8896FE"/>
<path d="M87.3304 9.52991C87.0876 9.52991 86.884 9.49402 86.7195 9.42224C86.555 9.34248 86.4218 9.2388 86.32 9.11119C86.2182 8.98358 86.1438 8.84401 86.0968 8.69247C86.0498 8.53296 86.0263 8.36946 86.0263 8.20197C86.0263 7.98663 86.038 7.77926 86.0615 7.57987C86.0929 7.38048 86.0968 7.20103 86.0733 7.04152C86.0576 6.88201 85.9989 6.7544 85.897 6.65869C85.7952 6.56298 85.6151 6.51513 85.3566 6.51513C85.0824 6.51513 84.7926 6.59489 84.4872 6.7544C84.1817 6.91391 83.9036 7.16514 83.653 7.50809C83.4023 7.85104 83.1948 8.29369 83.0303 8.83603C82.8658 9.3704 82.7836 10.0164 82.7836 10.7741C82.7836 11.6115 82.858 12.3772 83.0068 13.0711C83.1634 13.757 83.3945 14.3432 83.7 14.8297C84.0054 15.3162 84.3853 15.6951 84.8396 15.9662C85.2939 16.2294 85.8265 16.361 86.4375 16.361C86.7116 16.361 86.9701 16.3291 87.2129 16.2653C87.4636 16.2015 87.6986 16.1138 87.9179 16.0021C88.1372 15.8905 88.3448 15.7628 88.5406 15.6193C88.7442 15.4677 88.94 15.3082 89.128 15.1407L89.4218 15.4279C89.2416 15.6751 89.0105 15.9463 88.7286 16.2414C88.4466 16.5365 88.1059 16.8156 87.7064 17.0788C87.3069 17.334 86.8409 17.5494 86.3083 17.7248C85.7756 17.8923 85.1686 17.9761 84.4872 17.9761C83.8057 17.9761 83.1399 17.8445 82.4898 17.5813C81.8475 17.3101 81.2758 16.9193 80.7745 16.4089C80.2732 15.8984 79.8698 15.2803 79.5643 14.5545C79.2667 13.8208 79.1179 12.9873 79.1179 12.0542C79.1179 11.3284 79.2079 10.6624 79.3881 10.0563C79.5682 9.44218 79.811 8.88787 80.1165 8.39339C80.4298 7.8989 80.7901 7.46423 81.1974 7.08937C81.6126 6.71452 82.0473 6.40347 82.5016 6.15623C82.9559 5.90101 83.418 5.70959 83.888 5.58198C84.3658 5.45437 84.824 5.39057 85.2626 5.39057C85.8422 5.39057 86.3474 5.45836 86.7782 5.59395C87.209 5.72953 87.5654 5.90898 87.8474 6.1323C88.1372 6.35562 88.3526 6.61483 88.4936 6.90992C88.6346 7.19704 88.7051 7.49613 88.7051 7.80718C88.7051 8.03847 88.6737 8.26179 88.6111 8.47713C88.5562 8.68449 88.4701 8.86793 88.3526 9.02745C88.2429 9.17898 88.1019 9.3026 87.9296 9.39831C87.7573 9.48604 87.5576 9.52991 87.3304 9.52991Z" fill="url(#paint3_linear_1_139)"/>
<path d="M94.7558 7.91485C95.0535 7.45226 95.3707 7.03355 95.7075 6.65869C95.8485 6.49918 96.0012 6.34366 96.1657 6.19212C96.3302 6.04058 96.4986 5.905 96.6709 5.78536C96.8511 5.66573 97.0351 5.57002 97.2231 5.49824C97.4111 5.42646 97.5991 5.39057 97.7871 5.39057C98.1865 5.39057 98.4998 5.51419 98.727 5.76144C98.9541 6.0007 99.0677 6.33967 99.0677 6.77833C99.0677 7.0495 99.0442 7.31269 98.9972 7.56791C98.9581 7.81515 98.8758 8.11823 98.7505 8.47713H98.4215C98.3745 8.22989 98.2649 8.02651 98.0925 7.867C97.9202 7.69951 97.6696 7.61576 97.3406 7.61576C97.0978 7.61576 96.8589 7.66362 96.6239 7.75932C96.3889 7.84706 96.1579 7.95871 95.9307 8.0943C95.7114 8.22989 95.4999 8.37743 95.2963 8.53695C95.1005 8.69646 94.9203 8.84799 94.7558 8.99156V16.7558C94.7558 16.8595 94.7401 16.9831 94.7088 17.1267C94.6775 17.2702 94.5992 17.4058 94.4738 17.5334C94.3563 17.661 94.1762 17.7687 93.9334 17.8564C93.6984 17.9521 93.3733 18 92.9582 18C92.5431 18 92.2141 17.9482 91.9713 17.8445C91.7363 17.7488 91.5562 17.6331 91.4308 17.4975C91.3055 17.362 91.2272 17.2224 91.1959 17.0788C91.1645 16.9353 91.1489 16.8196 91.1489 16.7319V7.49613C91.1489 7.26484 91.094 7.06545 90.9844 6.89796C90.8825 6.7225 90.7063 6.63476 90.4557 6.63476C90.3225 6.63476 90.2089 6.65869 90.1149 6.70654C90.021 6.7544 89.9191 6.82219 89.8095 6.90992L89.5627 6.61084C89.7429 6.4593 89.9426 6.31175 90.1619 6.16819C90.3891 6.01665 90.6319 5.88506 90.8904 5.7734C91.1489 5.66174 91.4269 5.57002 91.7246 5.49824C92.0222 5.42646 92.3355 5.39057 92.6645 5.39057C93.0013 5.39057 93.2872 5.43842 93.5222 5.53413C93.765 5.62186 93.9608 5.7415 94.1096 5.89303C94.2663 6.03659 94.3877 6.20009 94.4738 6.38353C94.56 6.56697 94.6227 6.7544 94.6618 6.94581C94.7088 7.12925 94.7362 7.3087 94.7441 7.48417C94.7519 7.65165 94.7558 7.79521 94.7558 7.91485Z" fill="#8896FE"/>
<path d="M94.7558 7.91485C95.0535 7.45226 95.3707 7.03355 95.7075 6.65869C95.8485 6.49918 96.0012 6.34366 96.1657 6.19212C96.3302 6.04058 96.4986 5.905 96.6709 5.78536C96.8511 5.66573 97.0351 5.57002 97.2231 5.49824C97.4111 5.42646 97.5991 5.39057 97.7871 5.39057C98.1865 5.39057 98.4998 5.51419 98.727 5.76144C98.9541 6.0007 99.0677 6.33967 99.0677 6.77833C99.0677 7.0495 99.0442 7.31269 98.9972 7.56791C98.9581 7.81515 98.8758 8.11823 98.7505 8.47713H98.4215C98.3745 8.22989 98.2649 8.02651 98.0925 7.867C97.9202 7.69951 97.6696 7.61576 97.3406 7.61576C97.0978 7.61576 96.8589 7.66362 96.6239 7.75932C96.3889 7.84706 96.1579 7.95871 95.9307 8.0943C95.7114 8.22989 95.4999 8.37743 95.2963 8.53695C95.1005 8.69646 94.9203 8.84799 94.7558 8.99156V16.7558C94.7558 16.8595 94.7401 16.9831 94.7088 17.1267C94.6775 17.2702 94.5992 17.4058 94.4738 17.5334C94.3563 17.661 94.1762 17.7687 93.9334 17.8564C93.6984 17.9521 93.3733 18 92.9582 18C92.5431 18 92.2141 17.9482 91.9713 17.8445C91.7363 17.7488 91.5562 17.6331 91.4308 17.4975C91.3055 17.362 91.2272 17.2224 91.1959 17.0788C91.1645 16.9353 91.1489 16.8196 91.1489 16.7319V7.49613C91.1489 7.26484 91.094 7.06545 90.9844 6.89796C90.8825 6.7225 90.7063 6.63476 90.4557 6.63476C90.3225 6.63476 90.2089 6.65869 90.1149 6.70654C90.021 6.7544 89.9191 6.82219 89.8095 6.90992L89.5627 6.61084C89.7429 6.4593 89.9426 6.31175 90.1619 6.16819C90.3891 6.01665 90.6319 5.88506 90.8904 5.7734C91.1489 5.66174 91.4269 5.57002 91.7246 5.49824C92.0222 5.42646 92.3355 5.39057 92.6645 5.39057C93.0013 5.39057 93.2872 5.43842 93.5222 5.53413C93.765 5.62186 93.9608 5.7415 94.1096 5.89303C94.2663 6.03659 94.3877 6.20009 94.4738 6.38353C94.56 6.56697 94.6227 6.7544 94.6618 6.94581C94.7088 7.12925 94.7362 7.3087 94.7441 7.48417C94.7519 7.65165 94.7558 7.79521 94.7558 7.91485Z" fill="url(#paint4_linear_1_139)"/>
<path d="M103.109 12.3174C103.109 12.5726 103.145 12.8517 103.215 13.1548C103.293 13.4499 103.403 13.749 103.544 14.0521C103.685 14.3551 103.857 14.6463 104.061 14.9254C104.273 15.1966 104.511 15.4398 104.778 15.6552C105.052 15.8705 105.353 16.042 105.682 16.1696C106.011 16.2972 106.372 16.361 106.763 16.361C107.037 16.361 107.292 16.3291 107.527 16.2653C107.762 16.2015 107.981 16.1138 108.185 16.0021C108.389 15.8905 108.584 15.7628 108.772 15.6193C108.96 15.4677 109.148 15.3082 109.336 15.1407L109.63 15.4279C109.45 15.6751 109.219 15.9463 108.937 16.2414C108.655 16.5365 108.314 16.8156 107.915 17.0788C107.515 17.334 107.049 17.5494 106.517 17.7248C105.984 17.8923 105.377 17.9761 104.695 17.9761C104.014 17.9761 103.348 17.8525 102.698 17.6052C102.056 17.35 101.484 16.9711 100.983 16.4687C100.482 15.9662 100.078 15.3401 99.7727 14.5904C99.475 13.8407 99.3262 12.9634 99.3262 11.9585C99.3262 11.2327 99.4163 10.5667 99.5964 9.96059C99.7766 9.35445 100.019 8.80812 100.325 8.3216C100.638 7.83509 100.998 7.4084 101.406 7.04152C101.821 6.67464 102.256 6.37157 102.71 6.1323C103.164 5.88506 103.626 5.70162 104.096 5.58198C104.574 5.45437 105.032 5.39057 105.471 5.39057C106.051 5.39057 106.556 5.45437 106.987 5.58198C107.417 5.70959 107.774 5.88107 108.056 6.09641C108.346 6.31175 108.561 6.56298 108.702 6.85011C108.843 7.12925 108.913 7.42435 108.913 7.7354C108.913 8.11025 108.808 8.44921 108.596 8.75229C108.385 9.04738 108.103 9.30659 107.75 9.52991L103.109 12.3174ZM105.471 9.88881C105.573 9.82501 105.655 9.76519 105.718 9.70936C105.788 9.64556 105.843 9.57377 105.882 9.49402C105.921 9.40629 105.949 9.3026 105.964 9.18297C105.988 9.05536 106 8.89984 106 8.7164C106 8.51701 105.976 8.29768 105.929 8.05841C105.89 7.81117 105.819 7.57987 105.718 7.36453C105.616 7.14919 105.487 6.96974 105.33 6.82618C105.173 6.68262 104.985 6.61084 104.766 6.61084C104.484 6.61084 104.241 6.69857 104.038 6.87403C103.842 7.04152 103.677 7.26085 103.544 7.53202C103.419 7.80319 103.317 8.11424 103.239 8.46517C103.168 8.80812 103.113 9.15506 103.074 9.50598C103.035 9.85691 103.011 10.1959 103.004 10.5229C102.996 10.8419 102.992 11.1131 102.992 11.3364L105.471 9.88881Z" fill="#8896FE"/>
<path d="M103.109 12.3174C103.109 12.5726 103.145 12.8517 103.215 13.1548C103.293 13.4499 103.403 13.749 103.544 14.0521C103.685 14.3551 103.857 14.6463 104.061 14.9254C104.273 15.1966 104.511 15.4398 104.778 15.6552C105.052 15.8705 105.353 16.042 105.682 16.1696C106.011 16.2972 106.372 16.361 106.763 16.361C107.037 16.361 107.292 16.3291 107.527 16.2653C107.762 16.2015 107.981 16.1138 108.185 16.0021C108.389 15.8905 108.584 15.7628 108.772 15.6193C108.96 15.4677 109.148 15.3082 109.336 15.1407L109.63 15.4279C109.45 15.6751 109.219 15.9463 108.937 16.2414C108.655 16.5365 108.314 16.8156 107.915 17.0788C107.515 17.334 107.049 17.5494 106.517 17.7248C105.984 17.8923 105.377 17.9761 104.695 17.9761C104.014 17.9761 103.348 17.8525 102.698 17.6052C102.056 17.35 101.484 16.9711 100.983 16.4687C100.482 15.9662 100.078 15.3401 99.7727 14.5904C99.475 13.8407 99.3262 12.9634 99.3262 11.9585C99.3262 11.2327 99.4163 10.5667 99.5964 9.96059C99.7766 9.35445 100.019 8.80812 100.325 8.3216C100.638 7.83509 100.998 7.4084 101.406 7.04152C101.821 6.67464 102.256 6.37157 102.71 6.1323C103.164 5.88506 103.626 5.70162 104.096 5.58198C104.574 5.45437 105.032 5.39057 105.471 5.39057C106.051 5.39057 106.556 5.45437 106.987 5.58198C107.417 5.70959 107.774 5.88107 108.056 6.09641C108.346 6.31175 108.561 6.56298 108.702 6.85011C108.843 7.12925 108.913 7.42435 108.913 7.7354C108.913 8.11025 108.808 8.44921 108.596 8.75229C108.385 9.04738 108.103 9.30659 107.75 9.52991L103.109 12.3174ZM105.471 9.88881C105.573 9.82501 105.655 9.76519 105.718 9.70936C105.788 9.64556 105.843 9.57377 105.882 9.49402C105.921 9.40629 105.949 9.3026 105.964 9.18297C105.988 9.05536 106 8.89984 106 8.7164C106 8.51701 105.976 8.29768 105.929 8.05841C105.89 7.81117 105.819 7.57987 105.718 7.36453C105.616 7.14919 105.487 6.96974 105.33 6.82618C105.173 6.68262 104.985 6.61084 104.766 6.61084C104.484 6.61084 104.241 6.69857 104.038 6.87403C103.842 7.04152 103.677 7.26085 103.544 7.53202C103.419 7.80319 103.317 8.11424 103.239 8.46517C103.168 8.80812 103.113 9.15506 103.074 9.50598C103.035 9.85691 103.011 10.1959 103.004 10.5229C102.996 10.8419 102.992 11.1131 102.992 11.3364L105.471 9.88881Z" fill="url(#paint5_linear_1_139)"/>
<path d="M116.503 11.6115C116.503 11.4122 116.441 11.2606 116.315 11.1569C116.19 11.0532 116.029 11.0014 115.834 11.0014C115.559 11.0014 115.297 11.0652 115.046 11.1928C114.804 11.3204 114.588 11.5079 114.4 11.7551C114.212 12.0023 114.063 12.3094 113.954 12.6763C113.844 13.0352 113.789 13.4539 113.789 13.9324C113.789 14.395 113.821 14.7779 113.883 15.0809C113.954 15.384 114.044 15.6273 114.153 15.8107C114.271 15.9862 114.404 16.1098 114.553 16.1816C114.702 16.2533 114.858 16.2892 115.023 16.2892C115.227 16.2892 115.418 16.2374 115.599 16.1337C115.779 16.0221 115.935 15.8825 116.069 15.715C116.202 15.5475 116.307 15.3601 116.386 15.1527C116.464 14.9453 116.503 14.738 116.503 14.5306V11.6115ZM114.635 6.37157C114.369 6.37157 114.122 6.40347 113.895 6.46728C113.668 6.53108 113.472 6.61084 113.308 6.70654C113.143 6.80225 113.014 6.90992 112.92 7.02956C112.826 7.14122 112.779 7.24889 112.779 7.35257C112.779 7.4722 112.838 7.55993 112.955 7.61576C113.08 7.66362 113.217 7.72343 113.366 7.79522C113.515 7.85902 113.648 7.95473 113.766 8.08234C113.891 8.20197 113.954 8.3894 113.954 8.64462C113.954 8.8121 113.918 8.96763 113.848 9.11119C113.785 9.24677 113.695 9.3704 113.578 9.48206C113.468 9.58574 113.335 9.66948 113.178 9.73329C113.029 9.78912 112.873 9.81703 112.708 9.81703C112.27 9.81703 111.913 9.66549 111.639 9.36242C111.373 9.05935 111.24 8.65658 111.24 8.15412C111.24 7.66761 111.365 7.25287 111.616 6.90992C111.866 6.559 112.191 6.27187 112.591 6.04856C112.998 5.82524 113.456 5.66174 113.965 5.55806C114.475 5.4464 114.984 5.39057 115.493 5.39057C116.104 5.39057 116.687 5.45836 117.243 5.59395C117.8 5.72953 118.289 5.94487 118.712 6.23997C119.143 6.53507 119.484 6.90992 119.734 7.36453C119.993 7.81914 120.122 8.36946 120.122 9.01548V15.7748C120.122 15.8466 120.126 15.9263 120.134 16.0141C120.142 16.1018 120.161 16.1816 120.192 16.2533C120.224 16.3251 120.271 16.3849 120.333 16.4328C120.396 16.4806 120.486 16.5046 120.604 16.5046C120.745 16.5046 120.874 16.4527 120.991 16.3491C121.117 16.2374 121.226 16.1257 121.32 16.0141L121.614 16.2653C121.497 16.4328 121.356 16.6162 121.191 16.8156C121.027 17.015 120.827 17.2024 120.592 17.3779C120.357 17.5534 120.083 17.7009 119.77 17.8205C119.456 17.9402 119.1 18 118.7 18C118.207 18 117.768 17.8525 117.384 17.5574C117.001 17.2543 116.75 16.7917 116.633 16.1696C116.382 16.5126 116.119 16.7997 115.845 17.031C115.579 17.2623 115.305 17.4497 115.023 17.5932C114.741 17.7368 114.455 17.8405 114.165 17.9043C113.883 17.9681 113.597 18 113.308 18C112.932 18 112.567 17.9402 112.215 17.8205C111.862 17.7009 111.545 17.5135 111.263 17.2583C110.989 16.9951 110.766 16.6561 110.594 16.2414C110.429 15.8266 110.347 15.3202 110.347 14.722C110.347 13.9962 110.488 13.4021 110.77 12.9395C111.052 12.4769 111.42 12.0901 111.874 11.779C112.336 11.46 112.857 11.1888 113.437 10.9655C114.024 10.7422 114.623 10.5069 115.234 10.2597C115.689 10.0762 116.018 9.80507 116.221 9.44617C116.433 9.07929 116.539 8.70443 116.539 8.3216C116.539 7.73141 116.366 7.26085 116.022 6.90992C115.685 6.55102 115.223 6.37157 114.635 6.37157Z" fill="#8896FE"/>
<path d="M116.503 11.6115C116.503 11.4122 116.441 11.2606 116.315 11.1569C116.19 11.0532 116.029 11.0014 115.834 11.0014C115.559 11.0014 115.297 11.0652 115.046 11.1928C114.804 11.3204 114.588 11.5079 114.4 11.7551C114.212 12.0023 114.063 12.3094 113.954 12.6763C113.844 13.0352 113.789 13.4539 113.789 13.9324C113.789 14.395 113.821 14.7779 113.883 15.0809C113.954 15.384 114.044 15.6273 114.153 15.8107C114.271 15.9862 114.404 16.1098 114.553 16.1816C114.702 16.2533 114.858 16.2892 115.023 16.2892C115.227 16.2892 115.418 16.2374 115.599 16.1337C115.779 16.0221 115.935 15.8825 116.069 15.715C116.202 15.5475 116.307 15.3601 116.386 15.1527C116.464 14.9453 116.503 14.738 116.503 14.5306V11.6115ZM114.635 6.37157C114.369 6.37157 114.122 6.40347 113.895 6.46728C113.668 6.53108 113.472 6.61084 113.308 6.70654C113.143 6.80225 113.014 6.90992 112.92 7.02956C112.826 7.14122 112.779 7.24889 112.779 7.35257C112.779 7.4722 112.838 7.55993 112.955 7.61576C113.08 7.66362 113.217 7.72343 113.366 7.79522C113.515 7.85902 113.648 7.95473 113.766 8.08234C113.891 8.20197 113.954 8.3894 113.954 8.64462C113.954 8.8121 113.918 8.96763 113.848 9.11119C113.785 9.24677 113.695 9.3704 113.578 9.48206C113.468 9.58574 113.335 9.66948 113.178 9.73329C113.029 9.78912 112.873 9.81703 112.708 9.81703C112.27 9.81703 111.913 9.66549 111.639 9.36242C111.373 9.05935 111.24 8.65658 111.24 8.15412C111.24 7.66761 111.365 7.25287 111.616 6.90992C111.866 6.559 112.191 6.27187 112.591 6.04856C112.998 5.82524 113.456 5.66174 113.965 5.55806C114.475 5.4464 114.984 5.39057 115.493 5.39057C116.104 5.39057 116.687 5.45836 117.243 5.59395C117.8 5.72953 118.289 5.94487 118.712 6.23997C119.143 6.53507 119.484 6.90992 119.734 7.36453C119.993 7.81914 120.122 8.36946 120.122 9.01548V15.7748C120.122 15.8466 120.126 15.9263 120.134 16.0141C120.142 16.1018 120.161 16.1816 120.192 16.2533C120.224 16.3251 120.271 16.3849 120.333 16.4328C120.396 16.4806 120.486 16.5046 120.604 16.5046C120.745 16.5046 120.874 16.4527 120.991 16.3491C121.117 16.2374 121.226 16.1257 121.32 16.0141L121.614 16.2653C121.497 16.4328 121.356 16.6162 121.191 16.8156C121.027 17.015 120.827 17.2024 120.592 17.3779C120.357 17.5534 120.083 17.7009 119.77 17.8205C119.456 17.9402 119.1 18 118.7 18C118.207 18 117.768 17.8525 117.384 17.5574C117.001 17.2543 116.75 16.7917 116.633 16.1696C116.382 16.5126 116.119 16.7997 115.845 17.031C115.579 17.2623 115.305 17.4497 115.023 17.5932C114.741 17.7368 114.455 17.8405 114.165 17.9043C113.883 17.9681 113.597 18 113.308 18C112.932 18 112.567 17.9402 112.215 17.8205C111.862 17.7009 111.545 17.5135 111.263 17.2583C110.989 16.9951 110.766 16.6561 110.594 16.2414C110.429 15.8266 110.347 15.3202 110.347 14.722C110.347 13.9962 110.488 13.4021 110.77 12.9395C111.052 12.4769 111.42 12.0901 111.874 11.779C112.336 11.46 112.857 11.1888 113.437 10.9655C114.024 10.7422 114.623 10.5069 115.234 10.2597C115.689 10.0762 116.018 9.80507 116.221 9.44617C116.433 9.07929 116.539 8.70443 116.539 8.3216C116.539 7.73141 116.366 7.26085 116.022 6.90992C115.685 6.55102 115.223 6.37157 114.635 6.37157Z" fill="url(#paint6_linear_1_139)"/>
<path d="M133.234 16.7558C133.234 16.8595 133.218 16.9831 133.187 17.1267C133.156 17.2702 133.077 17.4058 132.952 17.5334C132.834 17.661 132.654 17.7687 132.411 17.8564C132.169 17.9521 131.84 18 131.425 18C131.009 18 130.68 17.9482 130.438 17.8445C130.203 17.7488 130.022 17.6331 129.897 17.4975C129.78 17.362 129.705 17.2224 129.674 17.0788C129.643 16.9353 129.627 16.8196 129.627 16.7319V8.27375C129.627 8.16209 129.611 8.05043 129.58 7.93878C129.549 7.81914 129.502 7.71147 129.439 7.61576C129.376 7.52006 129.298 7.44429 129.204 7.38846C129.11 7.32465 129 7.29275 128.875 7.29275C128.664 7.29275 128.456 7.35656 128.252 7.48417C128.049 7.6038 127.857 7.74337 127.677 7.90289C127.504 8.0624 127.352 8.22191 127.218 8.38142C127.093 8.54093 127.003 8.66057 126.948 8.74032V16.7558C126.948 16.8595 126.932 16.9831 126.901 17.1267C126.87 17.2702 126.792 17.4058 126.666 17.5334C126.549 17.661 126.369 17.7687 126.126 17.8564C125.891 17.9521 125.566 18 125.151 18C124.735 18 124.406 17.9482 124.164 17.8445C123.929 17.7488 123.749 17.6331 123.623 17.4975C123.498 17.362 123.42 17.2224 123.388 17.0788C123.357 16.9353 123.341 16.8196 123.341 16.7319V7.49613C123.341 7.26484 123.286 7.06545 123.177 6.89796C123.075 6.7225 122.899 6.63476 122.648 6.63476C122.515 6.63476 122.401 6.65869 122.307 6.70654C122.213 6.7544 122.111 6.82219 122.002 6.90992L121.755 6.61084C121.935 6.4593 122.135 6.31175 122.354 6.16819C122.581 6.01665 122.824 5.88506 123.083 5.7734C123.341 5.66174 123.619 5.57002 123.917 5.49824C124.215 5.42646 124.528 5.39057 124.857 5.39057C125.366 5.39057 125.762 5.4783 126.043 5.65377C126.325 5.82125 126.533 6.02463 126.666 6.2639C126.799 6.50317 126.878 6.7544 126.901 7.01759C126.932 7.27281 126.948 7.48815 126.948 7.66362C127.316 7.24091 127.712 6.86207 128.135 6.52709C128.307 6.38353 128.495 6.24396 128.699 6.10837C128.91 5.97279 129.126 5.85316 129.345 5.74947C129.564 5.63781 129.791 5.55008 130.026 5.48628C130.261 5.42247 130.496 5.39057 130.731 5.39057C131.186 5.39057 131.573 5.47431 131.895 5.6418C132.216 5.80929 132.474 6.01267 132.67 6.25194C132.866 6.48323 133.007 6.73047 133.093 6.99367C133.187 7.24889 133.234 7.4722 133.234 7.66362C133.61 7.24091 134.005 6.86207 134.421 6.52709C134.593 6.38353 134.781 6.24396 134.984 6.10837C135.188 5.97279 135.4 5.85316 135.619 5.74947C135.846 5.63781 136.073 5.55008 136.3 5.48628C136.535 5.42247 136.77 5.39057 137.005 5.39057C137.46 5.39057 137.847 5.4783 138.168 5.65377C138.49 5.82125 138.748 6.04457 138.944 6.32372C139.14 6.60286 139.281 6.9179 139.367 7.26883C139.461 7.61975 139.508 7.97068 139.508 8.3216V15.727C139.508 15.7987 139.512 15.8785 139.52 15.9662C139.527 16.046 139.547 16.1257 139.578 16.2055C139.61 16.2773 139.657 16.3371 139.719 16.3849C139.79 16.4328 139.88 16.4567 139.99 16.4567C140.138 16.4567 140.272 16.4049 140.389 16.3012C140.507 16.1895 140.616 16.0779 140.718 15.9662L141 16.2175C140.89 16.3849 140.745 16.5724 140.565 16.7797C140.385 16.9791 140.17 17.1705 139.919 17.354C139.676 17.5374 139.39 17.689 139.061 17.8086C138.74 17.9362 138.376 18 137.969 18C137.624 18 137.323 17.9521 137.064 17.8564C136.813 17.7687 136.598 17.6491 136.418 17.4975C136.246 17.338 136.116 17.1546 136.03 16.9472C135.944 16.7319 135.901 16.5046 135.901 16.2653V8.27375C135.901 8.16209 135.885 8.05043 135.854 7.93878C135.823 7.81914 135.776 7.71147 135.713 7.61576C135.658 7.52006 135.584 7.44429 135.49 7.38846C135.396 7.32465 135.286 7.29275 135.161 7.29275C134.949 7.29275 134.738 7.35656 134.526 7.48417C134.323 7.6038 134.131 7.74337 133.951 7.90289C133.778 8.0624 133.629 8.22191 133.504 8.38142C133.379 8.54093 133.289 8.66057 133.234 8.74032V16.7558Z" fill="#8896FE"/>
<path d="M133.234 16.7558C133.234 16.8595 133.218 16.9831 133.187 17.1267C133.156 17.2702 133.077 17.4058 132.952 17.5334C132.834 17.661 132.654 17.7687 132.411 17.8564C132.169 17.9521 131.84 18 131.425 18C131.009 18 130.68 17.9482 130.438 17.8445C130.203 17.7488 130.022 17.6331 129.897 17.4975C129.78 17.362 129.705 17.2224 129.674 17.0788C129.643 16.9353 129.627 16.8196 129.627 16.7319V8.27375C129.627 8.16209 129.611 8.05043 129.58 7.93878C129.549 7.81914 129.502 7.71147 129.439 7.61576C129.376 7.52006 129.298 7.44429 129.204 7.38846C129.11 7.32465 129 7.29275 128.875 7.29275C128.664 7.29275 128.456 7.35656 128.252 7.48417C128.049 7.6038 127.857 7.74337 127.677 7.90289C127.504 8.0624 127.352 8.22191 127.218 8.38142C127.093 8.54093 127.003 8.66057 126.948 8.74032V16.7558C126.948 16.8595 126.932 16.9831 126.901 17.1267C126.87 17.2702 126.792 17.4058 126.666 17.5334C126.549 17.661 126.369 17.7687 126.126 17.8564C125.891 17.9521 125.566 18 125.151 18C124.735 18 124.406 17.9482 124.164 17.8445C123.929 17.7488 123.749 17.6331 123.623 17.4975C123.498 17.362 123.42 17.2224 123.388 17.0788C123.357 16.9353 123.341 16.8196 123.341 16.7319V7.49613C123.341 7.26484 123.286 7.06545 123.177 6.89796C123.075 6.7225 122.899 6.63476 122.648 6.63476C122.515 6.63476 122.401 6.65869 122.307 6.70654C122.213 6.7544 122.111 6.82219 122.002 6.90992L121.755 6.61084C121.935 6.4593 122.135 6.31175 122.354 6.16819C122.581 6.01665 122.824 5.88506 123.083 5.7734C123.341 5.66174 123.619 5.57002 123.917 5.49824C124.215 5.42646 124.528 5.39057 124.857 5.39057C125.366 5.39057 125.762 5.4783 126.043 5.65377C126.325 5.82125 126.533 6.02463 126.666 6.2639C126.799 6.50317 126.878 6.7544 126.901 7.01759C126.932 7.27281 126.948 7.48815 126.948 7.66362C127.316 7.24091 127.712 6.86207 128.135 6.52709C128.307 6.38353 128.495 6.24396 128.699 6.10837C128.91 5.97279 129.126 5.85316 129.345 5.74947C129.564 5.63781 129.791 5.55008 130.026 5.48628C130.261 5.42247 130.496 5.39057 130.731 5.39057C131.186 5.39057 131.573 5.47431 131.895 5.6418C132.216 5.80929 132.474 6.01267 132.67 6.25194C132.866 6.48323 133.007 6.73047 133.093 6.99367C133.187 7.24889 133.234 7.4722 133.234 7.66362C133.61 7.24091 134.005 6.86207 134.421 6.52709C134.593 6.38353 134.781 6.24396 134.984 6.10837C135.188 5.97279 135.4 5.85316 135.619 5.74947C135.846 5.63781 136.073 5.55008 136.3 5.48628C136.535 5.42247 136.77 5.39057 137.005 5.39057C137.46 5.39057 137.847 5.4783 138.168 5.65377C138.49 5.82125 138.748 6.04457 138.944 6.32372C139.14 6.60286 139.281 6.9179 139.367 7.26883C139.461 7.61975 139.508 7.97068 139.508 8.3216V15.727C139.508 15.7987 139.512 15.8785 139.52 15.9662C139.527 16.046 139.547 16.1257 139.578 16.2055C139.61 16.2773 139.657 16.3371 139.719 16.3849C139.79 16.4328 139.88 16.4567 139.99 16.4567C140.138 16.4567 140.272 16.4049 140.389 16.3012C140.507 16.1895 140.616 16.0779 140.718 15.9662L141 16.2175C140.89 16.3849 140.745 16.5724 140.565 16.7797C140.385 16.9791 140.17 17.1705 139.919 17.354C139.676 17.5374 139.39 17.689 139.061 17.8086C138.74 17.9362 138.376 18 137.969 18C137.624 18 137.323 17.9521 137.064 17.8564C136.813 17.7687 136.598 17.6491 136.418 17.4975C136.246 17.338 136.116 17.1546 136.03 16.9472C135.944 16.7319 135.901 16.5046 135.901 16.2653V8.27375C135.901 8.16209 135.885 8.05043 135.854 7.93878C135.823 7.81914 135.776 7.71147 135.713 7.61576C135.658 7.52006 135.584 7.44429 135.49 7.38846C135.396 7.32465 135.286 7.29275 135.161 7.29275C134.949 7.29275 134.738 7.35656 134.526 7.48417C134.323 7.6038 134.131 7.74337 133.951 7.90289C133.778 8.0624 133.629 8.22191 133.504 8.38142C133.379 8.54093 133.289 8.66057 133.234 8.74032V16.7558Z" fill="url(#paint7_linear_1_139)"/>
<defs>
<linearGradient id="paint0_linear_1_139" x1="21.884" y1="1" x2="162.543" y2="38.1289" gradientUnits="userSpaceOnUse">
<stop stop-color="#DFEBFF"/>
<stop offset="1" stop-color="#88ADCA"/>
</linearGradient>
<linearGradient id="paint1_linear_1_139" x1="21.884" y1="1" x2="162.543" y2="38.1289" gradientUnits="userSpaceOnUse">
<stop stop-color="#DFEBFF"/>
<stop offset="1" stop-color="#88ADCA"/>
</linearGradient>
<linearGradient id="paint2_linear_1_139" x1="21.884" y1="1" x2="162.543" y2="38.1289" gradientUnits="userSpaceOnUse">
<stop stop-color="#DFEBFF"/>
<stop offset="1" stop-color="#88ADCA"/>
</linearGradient>
<linearGradient id="paint3_linear_1_139" x1="21.884" y1="1" x2="162.543" y2="38.1289" gradientUnits="userSpaceOnUse">
<stop stop-color="#DFEBFF"/>
<stop offset="1" stop-color="#88ADCA"/>
</linearGradient>
<linearGradient id="paint4_linear_1_139" x1="21.884" y1="1" x2="162.543" y2="38.1289" gradientUnits="userSpaceOnUse">
<stop stop-color="#DFEBFF"/>
<stop offset="1" stop-color="#88ADCA"/>
</linearGradient>
<linearGradient id="paint5_linear_1_139" x1="21.884" y1="1" x2="162.543" y2="38.1289" gradientUnits="userSpaceOnUse">
<stop stop-color="#DFEBFF"/>
<stop offset="1" stop-color="#88ADCA"/>
</linearGradient>
<linearGradient id="paint6_linear_1_139" x1="21.884" y1="1" x2="162.543" y2="38.1289" gradientUnits="userSpaceOnUse">
<stop stop-color="#DFEBFF"/>
<stop offset="1" stop-color="#88ADCA"/>
</linearGradient>
<linearGradient id="paint7_linear_1_139" x1="21.884" y1="1" x2="162.543" y2="38.1289" gradientUnits="userSpaceOnUse">
<stop stop-color="#DFEBFF"/>
<stop offset="1" stop-color="#88ADCA"/>
</linearGradient>
</defs>
</svg>
