<svg width="18" height="24" viewBox="0 0 18 24" fill="none" xmlns="http://www.w3.org/2000/svg">
<path d="M9 0C5.87039 0 3.33333 2.60954 3.33333 5.82857C3.33333 9.0476 5.87039 11.6571 9 11.6571C12.1296 11.6571 14.6667 9.0476 14.6667 5.82857C14.6667 2.60954 12.1296 0 9 0Z" fill="#8896FE"/>
<path d="M9 0C5.87039 0 3.33333 2.60954 3.33333 5.82857C3.33333 9.0476 5.87039 11.6571 9 11.6571C12.1296 11.6571 14.6667 9.0476 14.6667 5.82857C14.6667 2.60954 12.1296 0 9 0Z" fill="url(#paint0_linear_1_6)"/>
<path d="M12.3441 14.2502C10.1287 13.8866 7.87128 13.8866 5.65591 14.2502L5.41845 14.2892C2.2969 14.8016 0 17.5711 0 20.8224C0 22.5774 1.38312 24 3.08929 24H14.9107C16.6169 24 18 22.5774 18 20.8224C18 17.5711 15.7031 14.8016 12.5816 14.2892L12.3441 14.2502Z" fill="#8896FE"/>
<path d="M12.3441 14.2502C10.1287 13.8866 7.87128 13.8866 5.65591 14.2502L5.41845 14.2892C2.2969 14.8016 0 17.5711 0 20.8224C0 22.5774 1.38312 24 3.08929 24H14.9107C16.6169 24 18 22.5774 18 20.8224C18 17.5711 15.7031 14.8016 12.5816 14.2892L12.3441 14.2502Z" fill="url(#paint1_linear_1_6)"/>
<defs>
<linearGradient id="paint0_linear_1_6" x1="-4.104" y1="-1.03726e-07" x2="23.7828" y2="0.967569" gradientUnits="userSpaceOnUse">
<stop stop-color="#DFEBFF"/>
<stop offset="1" stop-color="#88ADCA"/>
</linearGradient>
<linearGradient id="paint1_linear_1_6" x1="-4.104" y1="-1.03726e-07" x2="23.7828" y2="0.967569" gradientUnits="userSpaceOnUse">
<stop stop-color="#DFEBFF"/>
<stop offset="1" stop-color="#88ADCA"/>
</linearGradient>
</defs>
</svg>
